<?xml version="1.0" encoding="utf-8"?>
<!-- Generator: Adobe Illustrator 16.0.0, SVG Export Plug-In . SVG Version: 6.00 Build 0)  -->
<!DOCTYPE svg PUBLIC "-//W3C//DTD SVG 1.1//EN" "http://www.w3.org/Graphics/SVG/1.1/DTD/svg11.dtd">
<svg version="1.1" id="Layer_1" xmlns="http://www.w3.org/2000/svg" xmlns:xlink="http://www.w3.org/1999/xlink" x="0px" y="0px"
	 width="246.939px" height="175.511px" viewBox="0 0 246.939 175.511" enable-background="new 0 0 246.939 175.511"
	 xml:space="preserve">
<g>
	<g>
		<g>
			<path fill-rule="evenodd" clip-rule="evenodd" fill="#77777A" d="M162.137,141.485c0,6.244,3.552,10.221,9.976,10.221
				c2.446,0,4.345-0.244,6.058-0.736l-0.245-6.486c-0.856,0.551-2.264,0.859-3.731,0.859c-3.12,0-3.856-2.51-3.856-5.203V125.45
				h7.282v-5.994h-7.282v-8.934l-8.2,2.629v6.305h-6.058v5.994h6.058V141.485z M145.684,112.909h8.199v-7.836h-8.199V112.909z
				 M145.684,150.97h8.199v-31.514h-8.199V150.97z M111.176,150.97h7.955v-3.854h0.123c2.387,3.365,6.181,4.59,9.668,4.59
				c9.669,0,13.218-7.955,13.218-16.586c0-8.688-3.549-16.398-13.218-16.398c-4.282,0-7.159,1.773-9.424,4.771h-0.123v-18.42h-8.199
				V150.97z M119.437,135.12c0-4.405,2.081-10.035,7.344-10.035c5.324,0,6.792,5.813,6.792,10.035
				c0,4.348-1.527,10.223-6.914,10.223C121.212,145.343,119.437,139.589,119.437,135.12z M98.847,139.13h8.567v-8.568h-8.567V139.13
				z M71.07,134.448c0-4.713,2.571-9.363,7.894-9.363c5.388,0,7.957,4.527,7.957,9.363c0,5.262-1.652,10.895-7.957,10.895
				C72.723,145.343,71.07,139.651,71.07,134.448z M62.502,135.429c0,9.055,6.059,16.277,16.461,16.277
				c10.466,0,16.524-7.223,16.524-16.277c0-10.404-7.16-16.707-16.524-16.707C69.663,118.722,62.502,125.024,62.502,135.429z
				 M43.968,150.97h8.2v-11.564c0-4.527,0-12.85,6.672-12.85c1.469,0,2.938,0.242,3.671,0.671v-8.259
				c-0.857-0.246-1.714-0.246-2.51-0.246c-4.896,0-8.261,4.956-8.629,7.894H51.25v-7.159h-7.282V150.97z M25.066,125.085
				c5.323,0,6.792,5.813,6.792,10.035c0,4.348-1.529,10.223-6.915,10.223c-5.447,0-7.223-5.754-7.223-10.223
				C17.72,130.715,19.803,125.085,25.066,125.085z M9.459,163.823h8.201v-16.461h0.122c2.875,3.488,5.752,4.344,9.24,4.344
				c9.854,0,13.402-7.955,13.402-16.586c0-8.688-3.549-16.398-13.22-16.398c-4.833,0-7.954,2.141-9.789,5.201h-0.123v-4.467H9.459
				V163.823z"/>
		</g>
		<g>
			<g>
				<g>
					<defs>
						<path id="SVGID_1_" d="M154.722,91.204c-0.147,0.057-0.24,0.087-0.283,0.09c0.651-0.25,1.29-0.521,1.919-0.809
							c1.953-0.895,3.821-1.967,5.584-3.193c0.096-0.01-0.024,0.1-0.442,0.375c5.627,5.564,14.174,8.898,23.413,8.898
							c7.197,0.012,17.104-3.469,24.783-10.055c8.655-7.423,13.754-16.89,14.077-24.731c0-2.74-0.629-5.332-1.761-7.639
							c-4.688-7.282-21.979-7.21-42.614-0.553c-3.336,1.049-4.653,1.485-8.089,2.8c-3.441,1.345-7.032,2.983-10.546,4.666
							c-2.735,1.308-5.423,2.552-7.987,3.879c-0.761-2.354-1.395-4.756-1.905-7.132c2.682-1.508,8.607-4.563,8.607-4.563
							c6.406-3.356,12.774-6.236,18.928-8.615c14.228-5.5,27.313-8.33,37.125-8.189c0.448,0,0.896,0.012,1.34,0.038
							c12.016,0.693,21.575,10.651,21.575,22.837c-0.426,10.315-7.133,22.772-18.522,32.539
							c-10.105,8.668-23.141,13.248-32.609,13.229C174.119,105.075,162.023,99.644,154.722,91.204z"/>
					</defs>
					<use xlink:href="#SVGID_1_"  overflow="visible" fill="#C4D600"/>
					<clipPath id="SVGID_2_">
						<use xlink:href="#SVGID_1_"  overflow="visible"/>
					</clipPath>
					<g clip-path="url(#SVGID_2_)">
						<path fill="#FFFFFF" d="M162.348,90.698c6.291,4.414,14.21,7.51,22.68,7.51c20.796,0.048,44.087-18.271,45.025-39.724
							c-0.032-10.917-8.947-16.711-19.884-16.711c-9.274-0.135-18.924,1.034-32.95,6.458c-8.871,3.434-17.476,7.593-25.7,12.377
							c-0.07-0.273-0.138-0.544-0.203-0.816c8.976-5.402,18.42-10.068,28.192-13.85c14.024-5.424,26.724-7.355,36-7.223
							c10.937,0,19.853,9.609,19.885,20.526c-0.939,21.455-27.282,40.535-48.076,40.49c-9.928,0-19.099-3.277-25.78-8.534
							C161.807,91.038,162.078,90.868,162.348,90.698z"/>
					</g>
				</g>
			</g>
			<g>
				<g>
					<defs>
						<path id="SVGID_3_" d="M143.68,70.527c-4.44,2.857-8.439,5.805-11.928,8.783c-0.944,0.889-1.488,1.976-1.45,3.13
							c0.055,1.754,1.442,3.246,3.496,4.08l0.536,0.322c2.651,0.942,5.469,1.451,8.39,1.451l0.06,0.002
							c1.38-0.002,2.735-0.12,4.064-0.344c1.525-0.255,3.013-0.65,4.45-1.174c4.463-1.693,8.476-4.65,11.711-8.535
							c0.549-0.656,1.004-1.257,1.38-1.803c4.085-5.407,6.669-12.322,6.92-20.053c2.649-0.989,4.145-1.568,7.673-2.674
							c-0.035,17.25-10.098,31.903-24.252,37.5c-3.957,1.564-8.234,2.419-12.692,2.419h-0.075c-2.224,0-4.4-0.213-6.517-0.618
							c-0.37-0.073-0.736-0.156-1.094-0.248c-6.003-1.541-10.315-5.822-10.315-10.847c0-2.87,1.411-5.497,3.741-7.506
							c4.132-3.609,8.855-7.212,14.072-10.718c0.561,2.321,1.199,4.575,1.91,6.739L143.68,70.527z"/>
					</defs>
					<use xlink:href="#SVGID_3_"  overflow="visible" fill="#EC008C"/>
					<clipPath id="SVGID_4_">
						<use xlink:href="#SVGID_3_"  overflow="visible"/>
					</clipPath>
					<g clip-path="url(#SVGID_4_)">
						<path fill="#FFFFFF" d="M176.462,57.815c-1.858,19.319-16.368,32.918-34.5,32.918c-2.142,0-3.431-0.201-5.465-0.592
							c-5.985-1.164-10.937-3.781-10.937-8.222c0-2.336,1.914-5.332,3.975-7.113c3.211-2.802,6.749-5.174,10.313-7.523l0.189,0.691
							c-3.476,2.632-6.436,5.307-9.499,7.981c-1.803,1.553-2.691,4.155-2.691,5.963c0,3.294,3.16,5.6,8.938,6.724
							c1.926,0.371,3.148,0.564,5.177,0.564c17.145,0,31.63-12.73,33.688-31.105L176.462,57.815z"/>
					</g>
				</g>
			</g>
			<g>
				<path fill="#00AEEF" d="M156.635,13.791l0.048,0.01c7.791,1.943,15.782,12.506,20.679,27.157
					c-2.505,0.961-5.019,1.991-7.53,3.088c-3.441-12.396-11.961-19.93-16.049-18.996c-5.435,1.24-9.632,14.467-6.471,30.861
					c0.23,1.2,0.49,2.376,0.764,3.528c0.103,0.306,0.178,0.629,0.258,0.957c1.012,4.157,2.312,8.021,3.799,11.445
					c0.414,0.957,0.845,1.881,1.287,2.765c0.877,2.119,1.841,4.09,2.873,5.883c-2.033,1.548-4.242,2.757-6.569,3.569
					c-3.237-5.617-5.992-12.584-7.873-20.363c-0.313-1.297-0.604-2.615-0.867-3.957c-4.595-23.366,0.486-44,11.348-46.088
					c0.604-0.115,1.215-0.173,1.828-0.17h0.05c0.719,0.005,1.44,0.09,2.164,0.248l0.045,0.012l0.051,0.01l0.045,0.01l0.075,0.018
					L156.635,13.791z"/>
				<g>
					<g>
						<g>
							<path fill="#FFFFFF" d="M146.621,68.018l-0.589-0.483c-0.783-2.632-1.475-5.43-2.056-8.382
								c-4.719-24.005,1.335-41.047,8.931-42.504c5.897-1.134,14.465,6.752,20.226,21.493c-4.674-8.455-12.187-19.381-20.03-17.591
								c-8.55,1.953-11.836,20.879-8.785,36.702C144.748,59.493,145.915,64.91,146.621,68.018z"/>
						</g>
					</g>
				</g>
			</g>
		</g>
	</g>
</g>
</svg>
